<svg version="1" xmlns="http://www.w3.org/2000/svg" width="933.333" height="933.333" viewBox="0 0 700.000000 700.000000"><path d="M343 5c-9.5 4.1-24.6 10.4-81.5 34-28 11.6-52.3 21.7-54 22.4-1.6.8-12.4 5.3-24 10-11.5 4.8-25.7 10.7-31.5 13.1-25.1 10.5-38.9 16.3-78 32.5-22.8 9.5-43.3 18-45.5 18.9-2.2 1-8.4 3.6-13.7 5.7L5 145.5l.3 186 .2 185.9 6 3.1c26.2 13.6 38.6 20.1 42 22 2.2 1.2 12.3 6.5 22.5 11.8 10.2 5.3 23.7 12.3 30 15.7 6.3 3.3 14.7 7.7 18.5 9.6 3.9 1.9 9.9 5.1 13.5 7 3.6 1.9 15.3 8.1 26 13.6s21.8 11.3 24.5 12.8c2.8 1.5 10.9 5.8 18 9.5 7.2 3.7 16.6 8.7 21 11 4.4 2.3 14.8 7.7 23 12 25.7 13.3 39.9 20.7 43 22.5 1.7 1 10.7 5.7 20 10.5 9.4 4.8 21.7 11.2 27.4 14.3l10.3 5.5 3.7-1.8c3.2-1.5 75.7-40.4 88.6-47.5 2.8-1.5 8.6-4.7 13-7s19.3-10.3 33-17.7c29.2-15.8 49.4-26.7 58.5-31.5 3.6-2 8.5-4.7 11-6 2.5-1.4 8.8-4.8 14-7.5 5.2-2.8 11.5-6.2 14-7.5 2.5-1.4 16.9-9.2 32-17.3 15.1-8.1 30-16.1 33-17.8 11-6 13.7-7.5 28-15.1l14.5-7.7V143.6l-11.5-4.9c-6.3-2.7-11.9-5-12.5-5.1-1.4-.4-4.3-1.6-9-3.7-2.2-.9-8-3.4-13-5.4-4.9-2-10.3-4.3-12-5-1.6-.7-10.9-4.5-20.5-8.5s-18.8-7.8-20.5-8.5c-1.6-.8-14.7-6.2-29-12.1-14.3-5.8-35.7-14.7-47.5-19.6-11.8-5-24.9-10.3-29-12-6.7-2.6-9.6-3.9-16.5-6.9-1.1-.5-21.1-8.8-44.5-18.5-23.4-9.6-50-20.7-59.1-24.5-9.1-3.8-17.4-6.9-18.5-6.8-1 0-4.8 1.3-8.4 2.9z"/></svg>